<svg xmlns="http://www.w3.org/2000/svg" width="64" height="64" viewBox="0 0 64 64"><title>Android</title><g fill="#fff"><path d="M40.33 6.204l.637-1.06.65-.893 1.496-2.242c.23-.314.158-.693-.2-.96-.213-.1-.627-.055-.857.262l-1.56 2.324-.708 1.072-.69 1.064c-2.144-.96-4.565-1.395-7.056-1.395-2.608 0-5 .435-7.195 1.395l-.71-1.064-.652-1.072L21.87 1.31c-.11-.316-.524-.36-.803-.26-.213.265-.33.644-.1.958l1.496 2.243.656.893.673 1.06c-5.078 2.303-8.627 6.802-8.627 11.982h33.59c0-5.18-3.373-9.68-8.425-11.98zm-15.528 7.16c-.933 0-1.76-.788-1.76-1.827 0-.893.828-1.67 1.76-1.67.983 0 1.8.777 1.8 1.67 0 1.04-.817 1.827-1.8 1.827zm14.35 0c-.925 0-1.7-.788-1.7-1.827 0-.893.775-1.67 1.7-1.67 1.085 0 1.896.777 1.896 1.67 0 1.04-.81 1.827-1.896 1.827zM15.494 20.638h-.328V46.97c0 2.165 1.753 3.77 3.817 3.77h2.8c-.07.35-.12.683-.12 1.042v7.558c0 2.084 1.592 3.66 3.55 3.66 1.933 0 3.59-1.576 3.59-3.66V51.782c0-.36-.08-.69-.183-1.043h6.7c-.066.35-.086.683-.086 1.042v7.558c0 2.084 1.554 3.66 3.628 3.66 1.93 0 3.553-1.576 3.553-3.66V51.782c0-.36-.06-.69-.166-1.043h2.735c2.162 0 3.77-1.605 3.77-3.77V20.64H15.495zM9.163 20.638C7.23 20.638 5.6 22.24 5.6 24.18v15.363c0 2.086 1.63 3.66 3.563 3.66 2.105 0 3.66-1.574 3.66-3.66V24.18c-.002-1.94-1.555-3.542-3.66-3.542zM54.77 20.638c-1.954 0-3.598 1.603-3.598 3.542v15.363c0 2.086 1.644 3.66 3.597 3.66 2.073 0 3.63-1.574 3.63-3.66V24.18c-.002-1.94-1.557-3.542-3.63-3.542z"/></g></svg>