<svg xmlns="http://www.w3.org/2000/svg" width="64" height="64" viewBox="0 0 64 64"><title>Apple</title><g fill="#fff"><path d="M48.925 33.945c-.078-7.854 6.406-11.62 6.693-11.81-3.643-5.328-9.316-6.06-11.338-6.142-4.824-.49-9.422 2.843-11.87 2.843-2.444 0-6.227-2.77-10.228-2.7-5.267.077-10.12 3.06-12.83 7.775-5.47 9.487-1.396 23.542 3.93 31.243 2.604 3.762 5.71 7.996 9.786 7.842 3.93-.154 5.41-2.543 10.16-2.543 4.747 0 6.08 2.543 10.235 2.463 4.225-.074 6.9-3.834 9.486-7.61 2.987-4.374 4.22-8.606 4.292-8.82-.09-.042-8.23-3.163-8.317-12.54zM41.118 10.9c2.16-2.625 3.625-6.27 3.23-9.9-3.12.126-6.897 2.073-9.135 4.694-2.007 2.328-3.76 6.03-3.292 9.593 3.48.27 7.03-1.767 9.198-4.387z"/></g></svg>