<svg xmlns="http://www.w3.org/2000/svg" width="64" height="64" viewBox="-17.479 -20 64 64" enable-background="new -17.479 -20 64 64"><title>Behance</title><path fill="#fff" d="M8.348 10.03s6.054-.448 6.054-7.556c0-7.1-4.95-10.564-11.23-10.564h-20.65V31.6H3.175s12.607.395 12.607-11.713c0 0 .55-9.856-7.434-9.856zM1.688-1.035h1.485s2.808 0 2.808 4.13c0 4.127-1.65 4.73-3.522 4.73H-8.38v-8.86H1.69zm.905 25.58H-8.38V13.94H3.176s4.185-.054 4.185 5.45c0 4.642-3.126 5.126-4.766 5.155zM32.6 2.01c-15.264 0-15.254 15.245-15.254 15.245S16.298 32.43 32.6 32.43c0 0 13.577.777 13.577-10.56h-6.982s.23 4.274-6.363 4.274c0 0-6.988.463-6.988-6.913h20.57S48.664 2.01 32.6 2.01zm-6.833 11.93s.858-6.114 6.99-6.114c6.127 0 6.047 6.114 6.047 6.114H25.767zM24.06-5.752h16.375v4.884H24.06z"/></svg>