<svg xmlns="http://www.w3.org/2000/svg" width="64" height="64" viewBox="0 0 64 64"><title>Codepen</title><path fill-rule="evenodd" clip-rule="evenodd" fill="#fff" d="M63.803 25.954l-.537-1.104-.908-.686c-1.188-.925-7.188.112-8.807-1.35-1.143-1.052-1.316-2.85-1.666-5.405-.643-4.97-1.055-5.03-1.832-6.708C47.22 4.727 39.558 0 34.29 0H20.017C8.79 0 0 8.378 0 19.557v23.715C0 54.43 8.79 64 20.018 64h23.447c11.227 0 20.338-9.352 20.402-20.51L64 26.853l-.197-.898zM20.275 16.41H31.59c2.16 0 3.908 1.963 3.908 4.093 0 2.128-1.748 4.112-3.908 4.112H20.275c-2.158 0-3.908-1.984-3.908-4.112 0-2.13 1.75-4.093 3.908-4.093zM43.27 47.59H20.276c-2.158 0-3.908-1.995-3.908-4.103 0-2.13 1.75-4.103 3.908-4.103H43.27c2.138 0 3.884 1.974 3.884 4.103 0 2.108-1.746 4.103-3.883 4.103z"/></svg>