<svg xmlns="http://www.w3.org/2000/svg" width="64" height="64" viewBox="0 0 64 64"><title>Codepen</title><path fill="#fff" d="M32.248 1.16c-17.123 0-31.004 13.81-31.004 30.842 0 17.03 13.88 30.837 31.004 30.837C49.363 62.84 63.243 49.03 63.243 32c0-17.033-13.88-30.84-30.995-30.84zm0 56.785c-14.41 0-26.09-11.613-26.09-25.943 0-14.33 11.68-25.948 26.09-25.948 14.4 0 26.078 11.617 26.078 25.948 0 14.33-11.677 25.943-26.078 25.943zM51.67 32.758l.012-.012v-.002c.407-.42.41-1.08-.002-1.486L36.466 16.12c-.205-.202-.477-.31-.746-.31-.27 0-.543.108-.744.31l-.02.02c-.197.2-.31.462-.31.745v4.187c0 .278.112.545.31.74L45.192 32 34.956 42.19c-.197.194-.31.466-.31.74v4.188c0 .275.112.545.31.744l.02.018c.195.193.465.307.744.307.283 0 .547-.113.746-.307L51.67 32.758zM13.187 32.758l-.013-.012v-.002c-.404-.42-.404-1.08 0-1.486L28.392 16.12c.208-.202.48-.31.747-.31.27 0 .54.108.743.31l.02.02c.202.2.313.462.313.745v4.187c0 .278-.11.545-.312.74L19.664 32l10.24 10.187c.2.194.31.466.31.74v4.188c0 .275-.11.545-.31.744l-.022.018c-.194.193-.463.307-.744.307-.278 0-.546-.113-.747-.307L13.188 32.758z"/></svg>