<svg xmlns="http://www.w3.org/2000/svg" width="64" height="64" viewBox="0 0 64 64"><title>Disqus</title><path fill="#fff" d="M33.166 63c-7.604 0-14.56-2.772-19.936-7.358L0 57.445 5.11 44.86C3.33 40.94 2.333 36.59 2.333 32c0-17.12 13.805-31 30.834-31S64 14.88 64 32c0 17.123-13.805 31-30.834 31zm16.838-31.09v-.086c0-8.944-6.324-15.324-17.23-15.324H20.996v31H32.6c10.99 0 17.404-6.644 17.404-15.59zm-17.1 7.974H29.46V24.12h3.444c5.06 0 8.418 2.876 8.418 7.84v.086c0 5.004-3.36 7.838-8.418 7.838z"/></svg>