<svg xmlns="http://www.w3.org/2000/svg" width="64" height="64" viewBox="-17 -16.772 64 64" enable-background="new -17 -16.772 64 64"><title>Dribbble</title><path fill="#fff" d="M47 15.225c0 2.173-.223 4.34-.66 6.445-.422 2.055-1.043 4.082-1.867 6.018-.797 1.892-1.785 3.72-2.945 5.438-1.143 1.694-2.457 3.274-3.908 4.728-1.45 1.448-3.04 2.763-4.727 3.904-1.715 1.155-3.55 2.147-5.44 2.953-1.93.815-3.952 1.446-6.01 1.86-2.11.44-4.278.658-6.443.658-2.175 0-4.344-.22-6.446-.656-2.055-.415-4.08-1.046-6.01-1.86-1.902-.81-3.73-1.797-5.44-2.952-1.692-1.144-3.288-2.466-4.73-3.904-1.45-1.448-2.766-3.033-3.91-4.728-1.15-1.716-2.145-3.547-2.95-5.438-.815-1.936-1.443-3.963-1.867-6.018C-16.78 19.567-17 17.4-17 15.227c0-2.16.22-4.332.647-6.438.424-2.058 1.052-4.08 1.867-6.016.805-1.903 1.798-3.73 2.95-5.433 1.144-1.7 2.46-3.29 3.91-4.74 1.442-1.446 3.036-2.754 4.73-3.902 1.71-1.156 3.538-2.15 5.44-2.957 1.93-.816 3.955-1.443 6.01-1.86 2.103-.43 4.27-.65 6.446-.65 2.165 0 4.338.217 6.442.65 2.06.42 4.082 1.044 6.012 1.86 1.89.807 3.725 1.8 5.44 2.958C34.58-10.155 36.17-8.846 37.62-7.4c1.45 1.445 2.766 3.04 3.908 4.74 1.16 1.7 2.148 3.528 2.945 5.432.824 1.935 1.445 3.958 1.867 6.015.44 2.106.66 4.278.66 6.438zM3.34-9.485C-4.283-5.89-9.97 1.135-11.74 9.597c.72.004 12.108.157 25.227-3.334C8.757-2.147 3.707-9 3.34-9.487zm12.408 19.952c-14.065 4.212-27.57 3.914-28.054 3.89-.008.296-.023.584-.023.868 0 7.026 2.65 13.423 7 18.27-.004-.015 7.47-13.287 22.218-18.05.36-.123.72-.23 1.078-.33-.684-1.56-1.432-3.113-2.217-4.648zM33.043-5.28C28.23-9.52 21.913-12.093 15-12.093c-2.223 0-4.375.268-6.44.764.404.55 5.542 7.36 10.214 15.94C29.09.744 32.977-5.18 33.044-5.28zm-13.21 24.92c-.063.02-.124.036-.18.06C3.527 25.318-1.74 36.645-1.795 36.77 2.84 40.385 8.66 42.56 15 42.56c3.778 0 7.387-.772 10.665-2.168-.404-2.39-1.998-10.762-5.832-20.75zM30.27 37.89c6.14-4.138 10.498-10.718 11.707-18.325-.564-.18-8.203-2.602-17.02-1.188C28.53 28.223 29.99 36.25 30.27 37.89zM20.88 8.68c.632 1.305 1.25 2.638 1.815 3.97.203.478.398.944.588 1.415 9.386-1.183 18.632.808 19.034.887-.062-6.48-2.375-12.43-6.22-17.083-.043.075-4.432 6.405-15.215 10.81z"/></svg>