<svg xmlns="http://www.w3.org/2000/svg" width="64" height="64" viewBox="0 0 64 64"><title>Drupal</title><path fill="#fff" d="M54.402 19.328c-7.13-8.72-12.882-9.488-16.52-11.567C35.276 6.274 32.874 3.654 29.82 0c-.205 1.974-.416 3.942-1.705 5.396-2.533 2.863-5.973 4.62-8.777 6.006C12.205 14.918 4 23.11 4 36.2c0 6.338 2.44 13.16 7.05 18.418 4.9 5.595 12.237 9.425 20.952 9.382 7.787-.04 14.182-2.586 18.986-6.743C56.61 52.395 60 45.253 60 36.2c0-6.67-1.986-12.448-5.598-16.872zm-7.884 38.86c-3.44 2.875-12.746 4.515-17.174.855-.436-.36-.45-.904-.164-1.22.215-.236.402-.345.66-.494.322-.187.736-.113 1.016.142 1.744 1.615 9.99 2.97 14.945-.367.184-.123.42-.206.62-.117.15.063.243.144.263.316.03.277.05.7-.164.882zm-11.59-4.355c.012-.414.127-.67.422-.962 1.695-1.69 3.5-2.693 5.525-2.644 3.234.08 3.373.843 4.314 2.737.186.385.076.718-.047.913-.066.107-.438.463-.562.463-.31 0-.425-.115-.552-.43-.772-1.93-1.915-1.94-3.36-1.94-2.22 0-3.19 1.084-4.502 2.17-.328.273-.635.475-.88.27-.198-.17-.364-.4-.36-.576zm17.353-.7c-3.09-.24-6.533-7.363-9.932-7.305-4.475.076-11.033 7.618-18.398 7.51-3.76-.057-7.806-1.43-7.93-7.162-.1-4.776 4.556-9.74 10.472-9.6 7.86.185 11.734 7.072 15.666 7.097 3.854.027 8.385-6 12.277-6.094 2.074-.05 3.674 1.95 3.828 4.74.233 4.182-2.42 11.086-5.982 10.812z"/></svg>