<svg xmlns="http://www.w3.org/2000/svg" width="64" height="64" viewBox="0 0 64 64"><title>Expressionengine</title><path d="M28.535 53.87c-8.1.508-15.91-.313-22.614-5.394C-.59 43.542-1.844 35.68 2.728 28.46c1.652-2.61 3.812-4.89 5.886-7.504l-4.525-2.908 16.73-4.367C12.89 19.426 7.306 26.43 9.21 36.89c1.93 10.593 9.638 14.99 19.323 16.98zm14.35-3.567c8.66-5.844 14.26-13.327 11.7-24.18-2.31-9.798-9.81-14.04-19.63-15.645.79-.25 1.12-.44 1.46-.45 6.997-.21 13.78.655 19.897 4.408 7.067 4.335 9.586 11.48 6.19 18.767-1.4 3.01-3.835 5.53-5.827 8.257-.396.544-.908 1.005-1.493 1.637l4.738 2.99c-5.65 1.49-10.962 2.89-16.275 4.28-.176.045-.383-.028-.76-.064zm-2.3-11.668c-3.766 4.28-8.52 5.993-14.095 5.073-5.304-.874-8.124-5.93-6.82-11.836C21.408 24.007 30 18.2 37.875 19.565c4.494.78 6.31 5.075 3.267 8.5-1.568 1.767-3.913 3.02-6.134 3.96-2.25.957-4.773 1.29-7.196 1.806-1.112.24-1.59.676-1.604 1.93-.05 4.76 3.244 7.27 7.894 5.654 1.638-.57 3.022-1.86 4.55-2.774.517-.31 1.117-.48 1.68-.712.083.236.168.47.254.707zm-13.99-5.85c4.57-.782 8.283-2.28 9.693-6.905.5-1.633.682-3.47-1.06-4.463-1.768-1.008-3.306-.085-4.535 1.304-2.463 2.785-3.45 6.183-4.1 10.066z" fill-rule="evenodd" clip-rule="evenodd" fill="#fff"/></svg>