<svg xmlns="http://www.w3.org/2000/svg" width="64" height="64" viewBox="0 0 64 64"><title>Foursquare</title><path fill="#fff" d="M48.75 1H15.7c-4.563 0-5.91 3.435-5.91 5.585v52.548c0 2.436 1.317 3.338 2.043 3.64.727.292 2.758.544 3.98-.86 0 0 15.62-18.115 15.875-18.383.414-.408.414-.408.826-.408h10.09c4.25 0 4.932-3.025 5.36-4.8.377-1.51 4.524-22.7 5.902-29.425C54.923 3.77 53.616 1 48.75 1zm-.786 37.322c.378-1.512 4.525-22.7 5.903-29.426M46.81 9.944l-1.39 7.243c-.167.78-1.15 1.596-2.06 1.596H30.467c-1.445 0-2.485.998-2.485 2.443v1.58c0 1.447 1.042 2.47 2.493 2.47H41.42c1.024 0 2.018 1.123 1.807 2.212-.23 1.09-1.26 6.53-1.384 7.125-.126.588-.826 1.61-2.042 1.61h-8.91c-1.634 0-2.12.222-3.21 1.556-1.09 1.366-10.854 13.104-10.854 13.104-.11.11-.21.086-.21-.04V9.848c0-.932.817-2.02 2.022-2.02h26.538c.97 0 1.88.924 1.635 2.117z"/></svg>