<svg xmlns="http://www.w3.org/2000/svg" width="64" height="64" viewBox="-18.5 -15.156 64 64" enable-background="new -18.5 -15.156 64 64"><title>Github</title><path fill="#fff" d="M13.5-14.692c-17.675 0-32 14.323-32 32.004 0 14.13 9.164 26.123 21.882 30.36 1.606.285 2.186-.696 2.186-1.547 0-.758-.026-2.768-.042-5.442-8.902 1.935-10.778-4.292-10.778-4.292-1.458-3.692-3.556-4.666-3.556-4.666-2.905-1.99.222-1.957.222-1.957 3.214.23 4.903 3.3 4.903 3.3 2.85 4.89 7.49 3.478 9.313 2.662.287-2.07 1.116-3.48 2.03-4.283C.554 30.64-6.915 27.887-6.915 15.63c0-3.485 1.25-6.348 3.29-8.58-.325-.812-1.427-4.063.315-8.47 0 0 2.686-.862 8.803 3.282C8.04 1.15 10.783.796 13.503.78c2.72.015 5.454.37 8.007 1.082 6.115-4.145 8.8-3.282 8.8-3.282 1.743 4.407.642 7.66.314 8.47 2.05 2.232 3.294 5.095 3.294 8.58 0 12.3-7.488 15-14.615 15.797 1.144.99 2.176 2.937 2.176 5.926 0 4.273-.045 7.72-.045 8.773 0 .858.576 1.853 2.2 1.54C36.335 43.428 45.5 31.44 45.5 17.313c0-17.682-14.32-32.005-32-32.005"/></svg>