<svg xmlns="http://www.w3.org/2000/svg" width="64" height="64" viewBox="0 0 64 64"><title>Googledrive</title><path fill="#4186FB" d="M22.81 43.367h-.352l-.16.3-8.403 14.67-.51.897H53.92l.172-.3 8.404-14.69.504-.877h-1.01z"/><path fill="#FCCE47" d="M44.56 39.645l.16.298h.344l16.927-.066 1.01-.004-.504-.893L42.902 5.064l-.16-.3h-.347l-16.917.067-1.023.004.51.893z"/><path fill="#0DA961" d="M30.48 22.403l-.174-.3-8.52-14.613-.512-.88-.513.88L1.177 41.427l-.176.3.176.28L9.69 56.63l.516.89.512-.89L30.306 22.7z"/></svg>