<svg xmlns="http://www.w3.org/2000/svg" width="64" height="64" viewBox="0 0 64 64"><title>Googleplus</title><path fill="#fff" d="M21.674 60.123c-7.383 0-12.77-4.615-12.77-10.245 0-5.57 6.68-10.133 14.08-10.082 1.693.006 3.334.343 4.793.762 3.99 2.707 6.924 4.445 7.727 7.548.12.7.234 1.404.234 1.937 0 5.63-3.627 10.08-14.064 10.08m1.943-33.045c-4.98-.07-9.672-5.607-10.596-12.063-.817-6.453 2.53-11.577 7.486-11.318 4.988.068 9.73 5.314 10.544 11.784.89 6.632-2.397 11.844-7.433 11.598m10.363 9.72c-1.807-1.176-5.154-4.202-5.154-6.02 0-2.162.648-3.047 3.703-5.57 3.23-2.39 5.505-5.996 5.505-10.103 0-4.693-2.17-9.497-6.266-11.026h6.138L42.25.83H22.93C14.29.832 6.16 7.482 6.16 15.035c0 7.825 5.908 13.974 14.693 13.974.603 0 1.17-.005 1.82-.044-.646 1.11-1.047 2.464-1.047 3.682 0 2.215 1.127 3.823 2.63 5.287-1.11 0-2.213.038-3.343.038C10.255 37.973 2 44.766 2 51.863c0 7.04 9.028 11.306 19.697 11.306 12.283 0 19.027-6.855 19.027-13.894 0-5.618-1.687-8.823-6.744-12.477M62 27.727h-7.504v-7.506H48.46v7.506h-7.507v6.033h7.506v7.506h6.036V33.76H62V27.73z"/></svg>