<svg xmlns="http://www.w3.org/2000/svg" width="64" height="64" viewBox="0 0 64 64"><title>Joomla</title><path fill-rule="evenodd" clip-rule="evenodd" fill="#fff" d="M6.747 16.938C5.3 21.778 6.482 27.24 10.3 31.062l1.23 1.23 6.32 6.322 6.69 6.69 6.312-6.327-6.683-6.686-6.32-6.32-1.237-1.234c-2.045-2.045-2.047-5.383.01-7.442 2.052-2.054 5.376-2.054 7.427-.002l.49.492 6.317-6.322-.492-.493c-3.602-3.61-8.657-4.87-13.277-3.785C16.428 3.11 12.898.002 8.643 0 3.913 0 .083 3.842.083 8.572c0 4.084 2.847 7.5 6.664 8.366zm18.54 1.59l6.32-6.32 1.23-1.228c3.804-3.808 9.224-5.006 14.04-3.59.575-4.173 4.156-7.39 8.48-7.39 4.73 0 8.562 3.838 8.562 8.572 0 4.354-3.238 7.95-7.434 8.5 1.375 4.805.174 10.19-3.604 13.978l-.49.496-6.313-6.328.485-.49c2.052-2.053 2.052-5.382.002-7.434-2.043-2.046-5.357-2.05-7.418.01l-1.23 1.23-6.32 6.324-6.683 6.688-6.318-6.323 6.686-6.694zM64 55.43c0 4.736-3.834 8.57-8.56 8.57-4.147 0-7.603-2.945-8.393-6.86-4.857 1.495-10.367.317-14.21-3.532l-.483-.484 6.314-6.326.482.486c2.05 2.053 5.377 2.053 7.426.002 2.044-2.047 2.052-5.365-.01-7.428L45.33 38.62l-6.312-6.326-6.67-6.686 6.32-6.32 6.662 6.68 6.315 6.326 1.238 1.242c3.635 3.637 4.89 8.752 3.756 13.406 4.16.583 7.36 4.163 7.36 8.488zm-26.08-9.38l-6.313 6.327-1.24 1.24c-3.645 3.652-8.79 4.893-13.458 3.734C16.033 61.164 12.63 64 8.56 64 3.832 64 0 60.164 0 55.43c0-4.053 2.81-7.45 6.584-8.344C5.39 42.39 6.63 37.2 10.3 33.526l.484-.483 6.318 6.32-.488.486c-2.05 2.053-2.05 5.377.003 7.434 2.056 2.06 5.39 2.057 7.434.008l1.237-1.24L31.6 39.73l6.67-6.687 6.312 6.326-6.66 6.68z"/></svg>