<svg xmlns="http://www.w3.org/2000/svg" width="64" height="64" viewBox="0 0 64 64"><title>Kickstarter</title><path fill="#fff" d="M25.82 22.128l11.37-16.47C39.337 2.55 42.117 1 45.514 1c2.78 0 5.183.99 7.207 2.958 2.036 1.97 3.055 4.33 3.055 7.068 0 2.027-.54 3.826-1.618 5.375L43.912 31.313 56.444 47.2c1.26 1.593 1.88 3.43 1.88 5.55 0 2.805-.98 5.213-2.958 7.242C53.406 62 51.006 63 48.206 63c-3.074 0-5.42-.994-7.024-2.994L25.82 40.842v10.57c0 3.018-.525 5.352-1.57 7.025C22.345 61.475 19.57 63 15.928 63c-3.315 0-5.886-1.113-7.704-3.354-1.7-2.06-2.548-4.787-2.548-8.186V12.283c0-3.226.856-5.876 2.6-7.963C10.09 2.1 12.6 1 15.79 1c3.048 0 5.584 1.1 7.612 3.32 1.132 1.217 1.85 2.457 2.15 3.708.18.778.27 2.224.27 4.344v9.756z"/></svg>