<svg xmlns="http://www.w3.org/2000/svg" width="64" height="64" viewBox="0 0 64 64"><title>Kirby</title><path fill-rule="evenodd" clip-rule="evenodd" fill="#fff" d="M61 18.314c-.075-1.32-1.027-3.12-2.13-3.77L33.85.402c-.914-.502-2.563-.55-3.46-.057L5.038 14.703c-1.078.635-2.073 2.45-2.036 3.74v27.16c0 1.39 1.106 3.327 2.284 4.025l24.67 13.927c1.104.596 3.086.593 4.194-.002L58.49 49.85c1.282-.764 2.368-2.837 2.482-4.386l.03-27.15zM41.498 37.606c2.295-.135 3.842.095 3.842 3.14 0 2.9-1.005 3.75-3.785 3.685-6.36-.147-12.73-.156-19.087.007-2.868.074-3.687-.96-3.7-3.762-.015-3.115 1.69-3.17 3.906-3.07.994.044 1.995-.115 2.992-.182-5.043-2.63-8.854-5.554-6.076-12.31 2.244 1.153 4.637 2.064 6.66 3.495 3.863 2.73 7.438 3.094 11.386.123 1.993-1.5 4.432-2.412 6.705-3.61 2.13 6.073 1.724 6.834-6.837 12.237 1.875.128 2.943.314 3.996.25z"/></svg>