<svg xmlns="http://www.w3.org/2000/svg" width="64" height="64" viewBox="0 0 64 64"><title>Lastfm</title><path fill="#fff" d="M54.03 29.157c-.526-.24-.966-.372-1.608-.475-3.777-1.302-6.07-2.025-6.07-5.038 0-2.37 1.875-4.097 4.477-4.097 1.933 0 3.403.82 4.72 2.56.176.195.305.28.56.16l3.817-1.9c.234-.06.285-.177.295-.352.01-.132.006-.212-.01-.255-2.17-3.72-5.154-5.537-9.264-5.537-6.123 0-10.182 3.817-10.182 9.557 0 5.976 3.82 8.505 11.02 10.878 4.257 1.383 6.122 2.115 6.122 5.088 0 3.26-3.092 5.627-7.148 5.504-4.35-.068-5.604-2.35-7.316-6.094-2.71-6.422-5.943-13.763-5.98-13.864-3.085-7.222-9.39-11.46-17.2-11.46-10.183 0-18.655 8.335-18.655 18.656 0 10.334 8.472 18.656 18.653 18.656 5.617 0 10.844-2.434 14.48-6.783.058-.126.093-.423.046-.558l-2.302-5.336c-.195-.127-.295-.227-.38-.23-.272-.007-.344.07-.522.192-2.114 4.28-6.493 6.822-11.323 6.822-7.08 0-12.733-5.758-12.733-12.764 0-7.044 5.654-12.75 12.733-12.75 5.192 0 9.8 3.018 11.666 7.538l5.88 13.315.718 1.47c2.613 6.105 6.42 8.893 12.426 8.932 7.32 0 12.654-4.89 12.654-11.08 0-6.46-3.446-8.836-9.577-10.755z"/></svg>