<svg xmlns="http://www.w3.org/2000/svg" width="64" height="64" viewBox="0 0 64 64"><title>Linkedin</title><path fill="#fff" d="M14.65 60.217H2.57V21.532h12.08v38.685zm-6.355-43.53h-.09C3.84 16.686 1 13.728 1 9.976c0-3.817 2.91-6.72 7.386-6.72 4.452 0 7.204 2.88 7.29 6.718 0 3.74-2.84 6.71-7.38 6.71zM63 60.216H49.306V40.19c0-5.226-2.128-8.796-6.848-8.796-3.618 0-5.62 2.38-6.547 4.73-.35.84-.29 1.993-.29 3.157v20.937H22.037s.18-35.468 0-38.685H35.62v6.063c.793-2.662 5.136-6.43 12.05-6.43 8.596 0 15.33 5.53 15.33 17.552v21.5z"/></svg>