<svg xmlns="http://www.w3.org/2000/svg" width="64" height="64" viewBox="0 0 64 64"><title>Moveabletype</title><path fill="#fff" d="M53.02 35.52c-6.04-.96-8.798-1.385-11.026-2.666-2.078-1.194-11.533-9.445-11.584-15.57.033-.268.055-.536.074-.808.025-.156.02-.322.057-.475l-.03.04c.007-.228.03-.45.03-.68C30.54 6.88 23.707 0 15.27 0 6.837 0 0 6.878 0 15.36c0 8.48 6.838 15.36 15.27 15.36.653 0 1.294-.057 1.93-.137l-.125.137s10.92.854 16.542 14.293c0 0 .744 7.04 1.908 9.6 1.168 2.56 5.52 9.174 11.35 9.387l-5.94-9.86 5.94-10.51 12.298-.323 4.668 8.746s2.335-14.506-10.82-16.533zm-32.183-9.77H9.597L3.34 15.314 9.596 4.88h11.56l6.04 10.22-6.36 10.65z"/></svg>