<svg xmlns="http://www.w3.org/2000/svg" width="64" height="64" viewBox="0 0 64 64"><title>Paypal</title><path fill="#fff" d="M62.985 16.248c-.183-2.59-.85-4.83-2.01-6.793C57.9 3.972 51.604 1.4 45.86 1.4H14.68L1 62.6h18.154l4.438-20.3h13.173c.13 0 .205-.015.354-.015 7.404-.138 14.074-2.803 18.817-7.712 3.087-3.204 5.373-7.41 6.442-12.354.51-2.127.673-4.112.605-5.972zm-17.768 5.974c-.448 1.99-1.586 3.936-3.1 5.39-.624.43-1.212.97-1.838 1.278-1.713 1.15-3.493 1.766-5.498 1.766h-8.46l3.59-15.536.28-1.29h8.955c1.517 0 2.91.532 3.882 1.29 2.11 1.483 3.026 4.024 2.187 7.102z"/></svg>