<svg xmlns="http://www.w3.org/2000/svg" width="64" height="64" viewBox="0 0 64 64"><title>Pinterest</title><path fill="#fff" d="M31.967.914C14.897.914 1 14.984 1 32c0 12.73 7.594 23.812 18.5 28.447-.04-2.015-.006-4.624.635-7.107.49-2.402 3.877-16.906 3.877-16.906s-.878-1.923-.878-4.887c0-4.562 2.656-7.96 5.994-7.96 2.728 0 4.168 2 4.168 4.578 0 2.925-1.844 7.106-2.806 10.954-.817 3.33 1.692 5.99 4.997 5.99 5.77 0 9.795-7.53 9.795-16.5 0-6.78-4.54-11.772-13.008-11.772-9.392 0-15.146 6.897-15.146 14.748 0 2.667.768 4.744 1.968 6.225.644.542.698.862.404 1.62-.07.658-.43 1.924-.525 2.557-.268.77-.96 1.09-1.688.767-4.238-1.818-6.362-6.627-6.362-11.926 0-8.723 7.457-19.44 22.323-19.44 11.754 0 19.584 8.6 19.584 17.89 0 12.086-6.765 21.306-16.804 21.306-3.336 0-6.448-1.833-7.543-3.974 0 0-1.842 7.156-2.213 8.564-.536 2.52-1.924 4.834-3.076 6.707 2.74.79 5.69 1.208 8.77 1.208C49.12 63.086 63 49.185 63 32 63 14.984 49.12.914 31.967.914"/></svg>