<svg xmlns="http://www.w3.org/2000/svg" width="64" height="64" viewBox="0 0 64 64"><title>RSS</title><path fill="#fff" d="M15.05 48.935c1.505 1.5 2.42 3.53 2.425 5.802-.006 2.26-.92 4.3-2.418 5.787h-.006c-1.492 1.497-3.545 2.408-5.818 2.408-2.277 0-4.32-.916-5.816-2.408C1.92 59.034 1 57 1 54.736c0-2.27.92-4.313 2.415-5.808v.006c1.496-1.494 3.54-2.417 5.816-2.417 2.275 0 4.328.923 5.82 2.418zm0-.006v.005-.006zM3.416 60.522h-.003.003zm-2.41-38.438v11.837c7.724.005 15.042 3.04 20.51 8.52 5.47 5.467 8.492 12.79 8.506 20.548v.017h11.896c-.01-11.278-4.596-21.498-12.01-28.914-7.408-7.416-17.622-12.006-28.9-12.008zm.02-21.09V12.83c27.625.022 50.088 22.52 50.11 50.176H63c-.006-17.094-6.957-32.58-18.178-43.818C33.588 7.954 18.112.998 1.026.994z"/></svg>