<svg xmlns="http://www.w3.org/2000/svg" width="64" height="64" viewBox="0 0 64 64"><title>Skype</title><path fill="#fff" d="M61.186 38.11c.428-1.954.665-4.132.665-6.347 0-16.2-13.25-29.547-29.56-29.547-1.728 0-3.436.263-5.07.414C24.588 1.036 21.462 0 18.144 0 8.592 0 1 7.756 1 17.172c0 3.262.812 6.233 2.303 8.634-.39 2.076-.584 3.998-.584 5.957 0 16.387 13.246 29.58 29.57 29.58 1.84 0 3.65-.12 5.405-.473 2.416 1.393 5.198 2.125 8.14 2.125 9.43 0 17.165-7.753 17.165-17.153 0-2.848-.666-5.442-1.814-7.73zM47.41 45.925c-1.35 1.916-3.356 3.436-5.994 4.527-2.58 1.097-5.655 1.747-9.225 1.747-4.238 0-7.81-.764-10.576-2.234-1.938-1.092-3.65-2.557-4.87-4.404-1.243-1.833-1.88-3.505-1.88-5.286 0-1.092.396-2.072 1.182-2.883.814-.75 1.856-1.13 3.12-1.13.998 0 1.905.324 2.605.994.66.482 1.28 1.465 1.726 2.58.542 1.166 1.097 2.094 1.705 2.994.56.77 1.41 1.277 2.47 1.89 1.065.458 2.528.767 4.338.767 2.404 0 4.426-.62 5.937-1.52 1.46-1.068 2.18-2.232 2.18-3.727 0-1.13-.364-2.143-1.143-2.875-.804-.762-1.87-1.246-3.156-1.63-1.337-.52-3.16-.99-5.425-1.415-3.113-.7-5.686-1.47-7.716-2.28-2.18-1.007-3.85-2.2-5.148-3.728-1.21-1.545-1.884-3.66-1.884-5.957 0-2.24.7-4.182 2.006-5.974 1.33-1.792 3.24-3.03 5.78-4.05 2.39-.827 5.304-1.248 8.637-1.248 2.624 0 4.917.25 6.907.824 1.973.684 3.578 1.47 4.89 2.53 1.282.886 2.26 1.98 2.838 3.12.67 1.126.973 2.25.973 3.367 0 1.086-.366 2.12-1.214 2.91-.83.808-1.858 1.206-3.057 1.206-1.11 0-1.97-.15-2.548-.78-.556-.43-1.11-1.187-1.727-2.3-.75-1.435-1.665-2.55-2.667-3.313-1.016-.754-2.626-1.14-4.947-1.14-2.096 0-3.875.412-5.093 1.23-1.267.92-1.865 1.766-1.865 2.88 0 .705.183 1.183.594 1.788.455.453.976.856 1.728 1.24.786.39 1.606.725 2.425 1.008.84.122 2.176.48 4.068.895 2.402.616 4.62 1.098 6.545 1.787 1.953.677 3.698 1.438 5.056 2.27 1.4 1.015 2.483 2.163 3.316 3.616.797 1.286 1.27 3.09 1.27 5.167 0 2.402-.72 4.638-2.156 6.537z"/></svg>