<svg xmlns="http://www.w3.org/2000/svg" width="64" height="64" viewBox="0 0 64 64"><title>Soundcloud</title><path fill="#fff" d="M3.992 43.995c.178 0 .304-.06.31-.208l.722-5.543-.722-5.486c-.006-.136-.13-.256-.31-.256-.064 0-.214.12-.263.256l-.55 5.486.55 5.54c.048.152.198.21.262.21zM2.03 41.718zm-.306.136c.063 0 .28-.064.305-.136l.457-3.474-.458-3.36c-.025-.14-.242-.323-.306-.323-.065 0-.272.184-.304.324L1 38.244l.42 3.474c.032.07.24.136.304.136zm5.026-10.17c-.03-.217-.153-.34-.24-.34-.267 0-.333.123-.336.34l-.663 6.56.664 6.453c.004.096.07.21.335.21.087 0 .21-.114.236-.21l.634-6.452-.63-6.56zM8.868 45.27c.274 0 .36-.27.366-.46l.683-6.565-.683-6.78c-.005-.17-.09-.25-.366-.25-.112 0-.362.08-.367.25l-.474 6.78.475 6.564c.006.19.256.46.368.46zm2.54.09c.16 0 .39-.217.396-.512l.606-6.604-.606-6.23c-.007-.208-.236-.48-.395-.48-.298 0-.393.274-.397.483l-.624 6.227.623 6.604c.004.296.1.513.396.513zm3.444-7.114l-.47-10.16c-.006-.338-.29-.516-.485-.516-.245 0-.528.178-.542.516l-.428 10.16.428 6.62c.014.374.296.563.542.563.197 0 .48-.19.484-.58v.018l.472-6.622zm1.494 7.193c.325 0 .606-.21.625-.626l.453-6.568-.452-12.534c-.018-.333-.3-.454-.624-.454-.212 0-.45.12-.453.454l-.42 12.534.42 6.57c.003.415.24.623.453.623zm2.572-21.387c-.34 0-.54.333-.55.57l-.49 13.623.49 6.537c.01.33.21.645.55.645.337 0 .625-.315.64-.647v.004l.445-6.537-.443-13.623c-.017-.237-.305-.57-.642-.57zm2.59 21.386c.35 0 .613-.35.622-.684l.468-6.51-.468-14.068c-.01-.337-.273-.555-.623-.555-.36 0-.686.217-.688.555l-.387 14.068.386 6.512c.002.333.327.68.687.68zm2.585-.002c.38 0 .686-.388.703-.713l.405-6.48-.404-13.677c-.018-.398-.322-.718-.703-.718-.37 0-.705.32-.707.718l-.365 13.678.366 6.48c.002.325.336.712.707.712zm3.72-7.192l-.37-13.145c-.014-.478-.354-.737-.746-.737-.393 0-.73.26-.735.745l-.354 13.14.354 6.454c.004.326.342.74.735.74.39 0 .732-.414.746-.743v.002l.37-6.456zm1.505 7.204c.398 0 .762-.453.766-.768v.004l.354-6.44-.354-15.733c-.004-.36-.368-.784-.766-.784-.452 0-.774.424-.776.783l-.332 15.733.332 6.44c.002.31.324.764.776.764zm2.606-25.202c-.538 0-.916.48-.933.84l-.31 17.164.31 6.34c.018.347.396.833.934.833.42 0 .793-.486.795-.844v.012l.38-6.34-.38-17.166c-.003-.357-.375-.838-.796-.838zm2.322 25.204l21.207.003c4.175 0 7.547-3.493 7.547-7.603 0-4.29-3.372-7.697-7.547-7.697-1.077 0-2.14.29-2.966.562-.67-6.85-6.36-12.172-13.422-12.172-1.788 0-3.386.27-4.87.84-.66.214-.732.524-.747.887v24.29c.015.352.38.86.798.89z"/></svg>