<svg xmlns="http://www.w3.org/2000/svg" width="64" height="64" viewBox="0 0 64 64"><title>Spotify</title><path fill="#fff" d="M63 32C63 14.884 49.123 1.01 32 1.01 14.874 1.01 1 14.883 1 32 1 40.18 4.198 47.59 9.375 53.133c2.043-2.42 4.512-4.37 7.334-5.807 3.323-1.687 6.898-2.538 10.63-2.538 5.932 0 11.604 2.22 15.965 6.235 2.198 2.037 3.964 4.43 5.27 7.137C57.235 52.66 63 43.016 63 32zM46.674 44.038c-.395.57-1.045.88-1.7.88-.397 0-.81-.12-1.17-.367-4.853-3.358-10.545-5.143-16.463-5.143-3.422 0-6.772.592-9.954 1.756-1.068.4-2.255-.15-2.647-1.227-.394-1.075.155-2.254 1.225-2.652 3.644-1.332 7.468-2.008 11.377-2.008 6.766 0 13.265 2.04 18.818 5.88.93.654 1.166 1.938.514 2.88zm4.514-9.535c-.438.71-1.202 1.092-1.98 1.092-.42 0-.847-.115-1.226-.355-6.18-3.855-13.32-5.9-20.642-5.9-4.068 0-8.082.623-11.93 1.863-1.217.387-2.532-.285-2.917-1.505-.394-1.224.278-2.534 1.5-2.93 4.302-1.38 8.8-2.078 13.348-2.078 8.19 0 16.18 2.288 23.11 6.608 1.09.69 1.415 2.115.738 3.204zm.97-8.617c-7.5-4.406-16.085-6.733-24.817-6.733-4.722 0-9.394.678-13.895 1.997-1.367.407-2.807-.376-3.208-1.743-.4-1.373.384-2.806 1.75-3.208 4.972-1.467 10.138-2.207 15.354-2.207 9.662 0 19.142 2.57 27.434 7.433 1.226.725 1.64 2.312.916 3.537-.482.818-1.342 1.275-2.233 1.275-.44 0-.885-.112-1.3-.353zM27.34 55.726c-1.998 0-3.912.448-5.69 1.35-1.312.67-2.486 1.556-3.49 2.618 4.172 2.094 8.86 3.297 13.84 3.297 2.196 0 4.35-.237 6.42-.683-.663-1.217-1.51-2.308-2.536-3.243-2.33-2.162-5.374-3.338-8.543-3.338z"/></svg>