<svg xmlns="http://www.w3.org/2000/svg" width="64" height="64" viewBox="0 0 64 64"><title>Squarespace</title><path fill="#fff" d="M23.698 42.3c-.182.116-.357.253-.518.41-1.207 1.187-1.207 3.106 0 4.288 1.205 1.19 3.162 1.19 4.453.016L47.28 27.71c2.413-2.37 6.323-2.37 8.735 0 2.414 2.368 2.414 6.212 0 8.58L37.38 54.68c2.414 2.367 6.324 2.367 8.734 0l14.27-14.1c4.822-4.738 4.822-12.422 0-17.158-4.824-4.736-12.643-4.736-17.47 0L23.7 42.3zm30.05-12.458c-1.208-1.184-3.16-1.184-4.37 0-.16.162-.3.33-.416.512L29.82 49.157c-2.415 2.37-6.323 2.37-8.735 0l-.088-.014c-1.203-1.183-3.158-1.183-4.365 0-1.207 1.188-1.207 3.107 0 4.29.152.148.318.283.492.394 4.848 4.354 12.37 4.227 17.06-.38l19.563-19.313c1.205-1.187 1.205-3.11 0-4.292zM21.084 40.58l19.56-19.316c1.206-1.186 1.206-3.105 0-4.287-1.204-1.188-3.16-1.188-4.366 0-.16.156-.3.326-.42.51L16.72 36.29c-2.412 2.37-6.322 2.37-8.732 0-2.412-2.368-2.412-6.212 0-8.58l18.63-18.39c-2.412-2.367-6.322-2.367-8.734 0L3.618 23.422c-4.824 4.736-4.824 12.42 0 17.158 4.822 4.735 12.645 4.735 17.467 0zM10.08 29.842c-1.206 1.184-1.206 3.105 0 4.292 1.206 1.184 3.163 1.184 4.454.01l19.65-19.3c2.287-2.248 5.928-2.365 8.354-.343l.29.33c1.206 1.183 3.163 1.183 4.368 0 1.188-1.167 1.242-3.09.086-4.274-4.822-4.74-12.64-4.74-17.463 0L10.6 29.436c-.183.113-.357.25-.52.406z"/></svg>