<svg xmlns="http://www.w3.org/2000/svg" width="64" height="64" viewBox="0 0 64 64"><title>Swarm</title><path fill="#F06D1B" d="M26.58 50.685c-1.545-3.473-2.383-7.23-2.475-11.006-2.488 3.85-4.37 7.72-5.62 10.606-.063.14-.98 2.413-1.25 3.12-.332.874.12 1.89.993 2.228.706.273 3.01 1.11 3.153 1.16 2.957.992 7.04 2.17 11.515 2.898-2.65-2.556-4.81-5.627-6.314-9.007z"/><path fill="#fff" d="M32.542 22.666c-8.74-17.86-28.15-17.223-31.214-9.24-2.352 6.127 7.938 20.726 31.617 10.183l.012-.007c-.08-.145-.356-.773-.415-.937zM36.648 21.44c-4.833-12 3.63-18.888 8.287-17.1 3.46 1.327 5.328 11.67-8.045 17.625-.002 0-.005 0-.007.002-.03-.086-.19-.44-.235-.528z"/><g fill="#F06D1B"><path d="M61.476 35.044c-2.024-4.55-5.74-7.81-10.062-9.365-.434-.158-.88-.23-1.323-.23-2.242 0-4.404 1.868-4.607 4.2-.342 3.89.428 7.85 2.13 11.67 1.675 3.765 4.05 6.947 7.106 9.286.793.608 1.767.895 2.74.895 1.75 0 3.498-.93 4.192-2.593 1.786-4.277 1.868-9.27-.176-13.863zM51.326 55.04c-3.742-2.864-6.71-6.716-8.814-11.447-2.137-4.8-3.01-9.653-2.59-14.43.115-1.33.502-2.61 1.125-3.78l-.356.088c-1.967.493-3.873 1.35-5.566 2.462-2.454 1.615-4.617 4.008-5.55 6.836-.25.763-.44 1.6-.502 2.4-.3 3.823.323 7.773 1.992 11.522 1.614 3.625 4.023 6.648 6.93 8.957 1.772 1.406 4.966 2.294 7.577 2.294 2.452 0 4.872-.73 7.044-1.836.68-.346 2.176-1.28 2.273-1.348-1.295-.332-2.514-.913-3.56-1.716z"/></g></svg>