<svg xmlns="http://www.w3.org/2000/svg" width="64" height="64" viewBox="0 0 64 64"><title>Tumblr</title><path fill="#fff" d="M33 0v16h14v10H33v16.848c0 3.67.982 6.03 1.36 7.078.378 1.04 1.48 1.87 2.51 2.492 1.362.842 2.988 1.264 4.746 1.264 3.123 0 5.384-1.045 9.384-3.13v9.993c-4 1.276-4.892 2.172-7.028 2.687-2.137.516-4.382.768-6.862.768-2.82 0-5.28-.365-7.447-1.093-2.166-.734-3.996-1.78-5.53-3.13-1.528-1.356-3.123-2.794-3.713-4.32-.592-1.528-1.42-3.74-1.42-6.633V26h-6v-8.368c2-.81 4.634-1.97 6.358-3.483 1.73-1.508 3.18-3.64 4.22-5.757C24.63 6.278 25.418 6 25.81 0H33z"/></svg>