<svg xmlns="http://www.w3.org/2000/svg" width="64" height="64" viewBox="-17.479 -20 64 64" enable-background="new -17.479 -20 64 64"><title>Twitter</title><path fill="#fff" d="M46.52-7.85c-2.355 1.044-4.894 1.75-7.543 2.067 2.707-1.625 4.8-4.195 5.77-7.262-2.527 1.504-5.338 2.598-8.33 3.188-2.396-2.556-5.812-4.15-9.585-4.15-7.252 0-13.13 5.88-13.13 13.13 0 1.03.108 2.03.336 2.993C3.126 1.57-6.545-3.658-13.027-11.604-14.157-9.662-14.8-7.41-14.8-5.002c0 4.555 2.317 8.574 5.836 10.93-2.147-.07-4.172-.665-5.945-1.644v.163c0 6.363 4.53 11.672 10.534 12.877-1.1.3-2.26.458-3.46.458-.844 0-1.668-.08-2.47-.23 1.673 5.214 6.52 9.01 12.267 9.12-4.49 3.52-10.152 5.613-16.31 5.613-1.057 0-2.1-.064-3.126-.186 5.81 3.727 12.713 5.903 20.13 5.903 24.147 0 37.35-20.006 37.35-37.357 0-.566-.01-1.137-.03-1.703 2.56-1.85 4.777-4.16 6.548-6.793z"/></svg>