<svg xmlns="http://www.w3.org/2000/svg" width="64" height="64" viewBox="0 0 64 64"><title>Vimeo</title><path fill="#fff" d="M62.972 17.607C62.68 23.61 58.478 31.86 50.35 42.315 41.91 53.39 34.812 58.747 28.917 58.747c-3.635 0-6.684-3.342-9.118-9.87-1.72-6.22-3.387-12.277-5.066-18.506-1.832-6.53-3.805-9.873-5.985-9.873-.43 0-2.092.86-4.84 2.782L1 19.525c3.06-2.655 6.087-5.314 9.05-7.958 4.002-3.63 7.078-5.317 9.144-5.593 4.807-.423 7.78 2.905 8.93 9.803 1.166 7.71 2.046 12.343 2.43 14.187 1.4 6.337 2.913 9.58 4.62 9.58 1.272 0 3.258-2.136 5.8-6.216 2.672-4.106 4.023-7.146 4.257-9.342.3-3.45-1.067-5.25-4.256-5.25-1.473 0-3 .334-4.56 1.038C39.453 9.78 45.347 4.94 53.945 5.268c6.388.258 9.386 4.39 9.028 12.34z"/></svg>