<svg xmlns="http://www.w3.org/2000/svg" width="64" height="64" viewBox="0 0 64 64"><title>Vine</title><path fill="#fff" d="M40.796 13.64c0-4.634 9.12-7.037 9.12.802-.03 4.302-.606 8.273-1.534 11.913h9.48c.722-4.392.69-8.73.69-13.838 0-14.395-26.55-16.793-26.55 1.445 0 12.806 6.033 19.543 12.343 23.09-5.262 10.316-12.343 15.94-12.343 15.94C12.167 36.835 14.09 9.48 14.09 9.48H5.447c.165 36.954 19.68 49.91 22.078 51.83 2.398 1.923 2.88 1.763 5.762 1.6 2.873-.16 9.428-6.722 17.43-19.192.77-1.21 1.462-2.36 2.094-3.484 3.346.75 5.742.764 5.742.764v-7.84c-16.8-1.603-17.758-15.998-17.758-19.52z"/></svg>