<svg xmlns="http://www.w3.org/2000/svg" width="64" height="64" viewBox="0 0 64 64"><title>Yahoo</title><g fill="#fff"><path d="M50.88 22.553c.374-.048.91-.108 1.4-.173h4.438l.705-1.08c.008 0 .02-.002.057-.002l1.87-2.55h-.15l.218-.313H35.094l1.03 3.944h6.58L31.59 32.26c-2.302-3.05-7.642-9.517-11.34-15.02h8.372v-2.925l.1-.53c-.037 0-.054-.003-.1-.003v-.308H1v3.767h8.186c3.152 2.546 15.25 17.65 15.847 19.165.125 1.42.297 9.9-.24 10.426-1.2 1.382-6.6 1.024-7.94 1.08l-.54 2.603c2.476.02 10.29-.244 12.657-.244 4.863 0 13.263-.053 14.402.15l.207-2.846c-1.278-.086-7.9-.008-8.78-.123-.14-1.396-.45-10.112-.148-11.104.864-2.64 14.68-13.37 16.23-13.797zM54.947 43.438l3.707.32L63 26.99c-.72-.006-7.312-.565-8.123-.783l.07 17.23zM54.273 46.065l.006 4.106 1.892.254 1.976.098.622-4.05-2.172-.06z"/></g></svg>